<mxfile host="app.diagrams.net" agent="Mozilla/5.0 (X11; Linux x86_64; rv:109.0) Gecko/20100101 Firefox/115.0" version="24.7.16">
  <diagram name="Page-1" id="T-gzN3W7ZyekmYyn_9fb">
    <mxGraphModel dx="2390" dy="1252" grid="1" gridSize="10" guides="1" tooltips="1" connect="1" arrows="1" fold="1" page="1" pageScale="1" pageWidth="827" pageHeight="1169" math="0" shadow="0">
      <root>
        <mxCell id="0" />
        <mxCell id="1" parent="0" />
        <mxCell id="jVJgHR4kwDVV8evpO-Ld-1" value="" style="verticalLabelPosition=top;verticalAlign=bottom;html=1;shape=mxgraph.basic.rect;fillColor2=none;strokeWidth=3;size=20;indent=100;fillColor=#d5e8d4;strokeColor=#82b366;align=right;horizontal=1;labelPosition=left;labelBackgroundColor=#ffffff;" vertex="1" parent="1">
          <mxGeometry x="250" y="320" width="840" height="820" as="geometry" />
        </mxCell>
        <mxCell id="jVJgHR4kwDVV8evpO-Ld-2" value="&lt;b&gt;Instruccions abans de la sentència SWITCH-CASE&lt;br&gt;&lt;/b&gt;" style="rounded=0;whiteSpace=wrap;html=1;fillColor=#ffe6cc;strokeColor=#d79b00;strokeWidth=3;" vertex="1" parent="1">
          <mxGeometry x="316" y="210" width="196" height="60" as="geometry" />
        </mxCell>
        <mxCell id="jVJgHR4kwDVV8evpO-Ld-3" value="&lt;b&gt;== value1&lt;/b&gt;" style="strokeWidth=3;html=1;shape=mxgraph.flowchart.decision;whiteSpace=wrap;fillColor=#dae8fc;strokeColor=#6c8ebf;" vertex="1" parent="1">
          <mxGeometry x="344" y="460" width="140" height="70" as="geometry" />
        </mxCell>
        <mxCell id="jVJgHR4kwDVV8evpO-Ld-4" value="" style="endArrow=classic;html=1;rounded=0;fillColor=#dae8fc;strokeColor=#6c8ebf;strokeWidth=3;entryX=0.5;entryY=0;entryDx=0;entryDy=0;entryPerimeter=0;" edge="1" parent="1" source="jVJgHR4kwDVV8evpO-Ld-2" target="jVJgHR4kwDVV8evpO-Ld-29">
          <mxGeometry width="50" height="50" relative="1" as="geometry">
            <mxPoint x="390" y="570" as="sourcePoint" />
            <mxPoint x="420" y="340" as="targetPoint" />
          </mxGeometry>
        </mxCell>
        <mxCell id="jVJgHR4kwDVV8evpO-Ld-53" style="edgeStyle=orthogonalEdgeStyle;rounded=0;orthogonalLoop=1;jettySize=auto;html=1;entryX=0.5;entryY=0;entryDx=0;entryDy=0;strokeWidth=3;fillColor=#dae8fc;strokeColor=#6c8ebf;" edge="1" parent="1" source="jVJgHR4kwDVV8evpO-Ld-6" target="jVJgHR4kwDVV8evpO-Ld-8">
          <mxGeometry relative="1" as="geometry">
            <Array as="points">
              <mxPoint x="1000" y="495" />
              <mxPoint x="1000" y="1070" />
              <mxPoint x="414" y="1070" />
            </Array>
          </mxGeometry>
        </mxCell>
        <mxCell id="jVJgHR4kwDVV8evpO-Ld-6" value="&lt;div&gt;&lt;b&gt;Bloc de codi quan expression == value1&lt;/b&gt;&lt;/div&gt;&lt;div&gt;&lt;b&gt;break;&lt;br&gt;&lt;/b&gt;&lt;/div&gt;" style="rounded=0;whiteSpace=wrap;html=1;fillColor=#ffe6cc;strokeColor=#d79b00;strokeWidth=3;" vertex="1" parent="1">
          <mxGeometry x="650" y="460" width="250" height="70" as="geometry" />
        </mxCell>
        <mxCell id="jVJgHR4kwDVV8evpO-Ld-7" value="&lt;b&gt;true&lt;/b&gt;" style="endArrow=classic;html=1;rounded=0;exitX=1;exitY=0.5;exitDx=0;exitDy=0;exitPerimeter=0;fillColor=#dae8fc;strokeColor=#6c8ebf;jumpSize=20;strokeWidth=3;labelBackgroundColor=#d5e8d4;edgeStyle=orthogonalEdgeStyle;" edge="1" parent="1" source="jVJgHR4kwDVV8evpO-Ld-3" target="jVJgHR4kwDVV8evpO-Ld-6">
          <mxGeometry x="-0.2048" y="15" width="50" height="50" relative="1" as="geometry">
            <mxPoint x="360" y="570" as="sourcePoint" />
            <mxPoint x="410" y="520" as="targetPoint" />
            <mxPoint as="offset" />
          </mxGeometry>
        </mxCell>
        <mxCell id="jVJgHR4kwDVV8evpO-Ld-8" value="&lt;b&gt;Instruccions després de la sentència SWITCH-CASE&lt;br&gt;&lt;/b&gt;" style="rounded=0;whiteSpace=wrap;html=1;fillColor=#ffe6cc;strokeColor=#d79b00;strokeWidth=3;" vertex="1" parent="1">
          <mxGeometry x="316" y="1180" width="196" height="60" as="geometry" />
        </mxCell>
        <mxCell id="jVJgHR4kwDVV8evpO-Ld-9" value="&lt;div&gt;&lt;b&gt;Condicional múltiple (switch-case)&lt;br&gt;&lt;/b&gt;&lt;/div&gt;" style="text;html=1;align=center;verticalAlign=middle;resizable=0;points=[];autosize=1;strokeColor=none;fillColor=none;" vertex="1" parent="1">
          <mxGeometry x="870" y="290" width="220" height="30" as="geometry" />
        </mxCell>
        <mxCell id="jVJgHR4kwDVV8evpO-Ld-10" value="&lt;b&gt;1&lt;/b&gt;" style="ellipse;whiteSpace=wrap;html=1;aspect=fixed;fillColor=#f8cecc;strokeColor=#b85450;" vertex="1" parent="1">
          <mxGeometry x="490" y="250" width="30" height="30" as="geometry" />
        </mxCell>
        <mxCell id="jVJgHR4kwDVV8evpO-Ld-11" value="&lt;span&gt;2&lt;/span&gt;" style="ellipse;whiteSpace=wrap;html=1;aspect=fixed;fillColor=#f8cecc;strokeColor=#b85450;fontStyle=1" vertex="1" parent="1">
          <mxGeometry x="880" y="510" width="30" height="30" as="geometry" />
        </mxCell>
        <mxCell id="jVJgHR4kwDVV8evpO-Ld-28" value="6" style="ellipse;whiteSpace=wrap;html=1;aspect=fixed;fillColor=#f8cecc;strokeColor=#b85450;fontStyle=1" vertex="1" parent="1">
          <mxGeometry x="490" y="1220" width="30" height="30" as="geometry" />
        </mxCell>
        <mxCell id="jVJgHR4kwDVV8evpO-Ld-31" style="edgeStyle=orthogonalEdgeStyle;rounded=0;orthogonalLoop=1;jettySize=auto;html=1;strokeWidth=3;fillColor=#dae8fc;strokeColor=#6c8ebf;" edge="1" parent="1" source="jVJgHR4kwDVV8evpO-Ld-29" target="jVJgHR4kwDVV8evpO-Ld-3">
          <mxGeometry relative="1" as="geometry" />
        </mxCell>
        <mxCell id="jVJgHR4kwDVV8evpO-Ld-29" value="&lt;b&gt;expression&lt;/b&gt;" style="strokeWidth=2;html=1;shape=mxgraph.flowchart.start_2;whiteSpace=wrap;fillColor=#fff2cc;strokeColor=#d6b656;" vertex="1" parent="1">
          <mxGeometry x="364" y="350" width="100" height="60" as="geometry" />
        </mxCell>
        <mxCell id="jVJgHR4kwDVV8evpO-Ld-32" value="&lt;b&gt;== value2&lt;/b&gt;" style="strokeWidth=3;html=1;shape=mxgraph.flowchart.decision;whiteSpace=wrap;fillColor=#dae8fc;strokeColor=#6c8ebf;" vertex="1" parent="1">
          <mxGeometry x="344" y="585" width="140" height="70" as="geometry" />
        </mxCell>
        <mxCell id="jVJgHR4kwDVV8evpO-Ld-60" style="edgeStyle=orthogonalEdgeStyle;rounded=0;orthogonalLoop=1;jettySize=auto;html=1;entryX=0.5;entryY=0;entryDx=0;entryDy=0;strokeWidth=3;fillColor=#dae8fc;strokeColor=#6c8ebf;" edge="1" parent="1" source="jVJgHR4kwDVV8evpO-Ld-33" target="jVJgHR4kwDVV8evpO-Ld-8">
          <mxGeometry relative="1" as="geometry">
            <Array as="points">
              <mxPoint x="1000" y="620" />
              <mxPoint x="1000" y="1070" />
              <mxPoint x="414" y="1070" />
            </Array>
          </mxGeometry>
        </mxCell>
        <mxCell id="jVJgHR4kwDVV8evpO-Ld-33" value="&lt;div&gt;&lt;b&gt;Bloc de codi quan expression == value2&lt;/b&gt;&lt;/div&gt;&lt;div&gt;&lt;b&gt;break;&lt;/b&gt;&lt;/div&gt;" style="rounded=0;whiteSpace=wrap;html=1;fillColor=#ffe6cc;strokeColor=#d79b00;strokeWidth=3;" vertex="1" parent="1">
          <mxGeometry x="650" y="585" width="250" height="70" as="geometry" />
        </mxCell>
        <mxCell id="jVJgHR4kwDVV8evpO-Ld-34" value="&lt;b&gt;true&lt;/b&gt;" style="endArrow=classic;html=1;rounded=0;exitX=1;exitY=0.5;exitDx=0;exitDy=0;exitPerimeter=0;fillColor=#dae8fc;strokeColor=#6c8ebf;jumpSize=20;strokeWidth=3;labelBackgroundColor=#d5e8d4;edgeStyle=orthogonalEdgeStyle;" edge="1" parent="1" source="jVJgHR4kwDVV8evpO-Ld-32" target="jVJgHR4kwDVV8evpO-Ld-33">
          <mxGeometry x="-0.2048" y="15" width="50" height="50" relative="1" as="geometry">
            <mxPoint x="360" y="695" as="sourcePoint" />
            <mxPoint x="410" y="645" as="targetPoint" />
            <mxPoint as="offset" />
          </mxGeometry>
        </mxCell>
        <mxCell id="jVJgHR4kwDVV8evpO-Ld-35" value="3" style="ellipse;whiteSpace=wrap;html=1;aspect=fixed;fillColor=#f8cecc;strokeColor=#b85450;fontStyle=1" vertex="1" parent="1">
          <mxGeometry x="880" y="635" width="30" height="30" as="geometry" />
        </mxCell>
        <mxCell id="jVJgHR4kwDVV8evpO-Ld-36" value="&lt;b&gt;&lt;span style=&quot;background-color: rgb(213, 232, 212);&quot;&gt;false&lt;/span&gt;&lt;/b&gt;" style="edgeStyle=orthogonalEdgeStyle;rounded=0;orthogonalLoop=1;jettySize=auto;html=1;entryX=0.5;entryY=0;entryDx=0;entryDy=0;entryPerimeter=0;strokeWidth=3;fillColor=#dae8fc;strokeColor=#6c8ebf;" edge="1" parent="1" source="jVJgHR4kwDVV8evpO-Ld-3" target="jVJgHR4kwDVV8evpO-Ld-32">
          <mxGeometry x="0.0909" y="26" relative="1" as="geometry">
            <mxPoint as="offset" />
          </mxGeometry>
        </mxCell>
        <mxCell id="jVJgHR4kwDVV8evpO-Ld-37" value="&lt;b&gt;== value3&lt;/b&gt;" style="strokeWidth=3;html=1;shape=mxgraph.flowchart.decision;whiteSpace=wrap;fillColor=#dae8fc;strokeColor=#6c8ebf;" vertex="1" parent="1">
          <mxGeometry x="344" y="710" width="140" height="70" as="geometry" />
        </mxCell>
        <mxCell id="jVJgHR4kwDVV8evpO-Ld-59" style="edgeStyle=orthogonalEdgeStyle;rounded=0;orthogonalLoop=1;jettySize=auto;html=1;exitX=1;exitY=0.5;exitDx=0;exitDy=0;entryX=0.5;entryY=0;entryDx=0;entryDy=0;strokeWidth=3;fillColor=#dae8fc;strokeColor=#6c8ebf;" edge="1" parent="1" source="jVJgHR4kwDVV8evpO-Ld-38" target="jVJgHR4kwDVV8evpO-Ld-8">
          <mxGeometry relative="1" as="geometry">
            <Array as="points">
              <mxPoint x="1000" y="745" />
              <mxPoint x="1000" y="1070" />
              <mxPoint x="414" y="1070" />
            </Array>
          </mxGeometry>
        </mxCell>
        <mxCell id="jVJgHR4kwDVV8evpO-Ld-38" value="&lt;div&gt;&lt;b&gt;Bloc de codi quan expression == value3&lt;/b&gt;&lt;/div&gt;&lt;div&gt;&lt;b&gt;break;&lt;/b&gt;&lt;/div&gt;" style="rounded=0;whiteSpace=wrap;html=1;fillColor=#ffe6cc;strokeColor=#d79b00;strokeWidth=3;" vertex="1" parent="1">
          <mxGeometry x="650" y="710" width="250" height="70" as="geometry" />
        </mxCell>
        <mxCell id="jVJgHR4kwDVV8evpO-Ld-39" value="&lt;b&gt;true&lt;/b&gt;" style="endArrow=classic;html=1;rounded=0;exitX=1;exitY=0.5;exitDx=0;exitDy=0;exitPerimeter=0;fillColor=#dae8fc;strokeColor=#6c8ebf;jumpSize=20;strokeWidth=3;labelBackgroundColor=#d5e8d4;edgeStyle=orthogonalEdgeStyle;" edge="1" parent="1" source="jVJgHR4kwDVV8evpO-Ld-37" target="jVJgHR4kwDVV8evpO-Ld-38">
          <mxGeometry x="-0.2048" y="15" width="50" height="50" relative="1" as="geometry">
            <mxPoint x="360" y="820" as="sourcePoint" />
            <mxPoint x="410" y="770" as="targetPoint" />
            <mxPoint as="offset" />
          </mxGeometry>
        </mxCell>
        <mxCell id="jVJgHR4kwDVV8evpO-Ld-40" value="4" style="ellipse;whiteSpace=wrap;html=1;aspect=fixed;fillColor=#f8cecc;strokeColor=#b85450;fontStyle=1" vertex="1" parent="1">
          <mxGeometry x="880" y="760" width="30" height="30" as="geometry" />
        </mxCell>
        <mxCell id="jVJgHR4kwDVV8evpO-Ld-41" value="&lt;b&gt;&lt;span style=&quot;background-color: rgb(213, 232, 212);&quot;&gt;false&lt;/span&gt;&lt;/b&gt;" style="edgeStyle=orthogonalEdgeStyle;rounded=0;orthogonalLoop=1;jettySize=auto;html=1;entryX=0.5;entryY=0;entryDx=0;entryDy=0;entryPerimeter=0;strokeWidth=3;fillColor=#dae8fc;strokeColor=#6c8ebf;exitX=0.5;exitY=1;exitDx=0;exitDy=0;exitPerimeter=0;" edge="1" parent="1" target="jVJgHR4kwDVV8evpO-Ld-37" source="jVJgHR4kwDVV8evpO-Ld-32">
          <mxGeometry x="0.0909" y="26" relative="1" as="geometry">
            <mxPoint x="414" y="655" as="sourcePoint" />
            <mxPoint as="offset" />
          </mxGeometry>
        </mxCell>
        <mxCell id="jVJgHR4kwDVV8evpO-Ld-44" value="&lt;b style=&quot;background-color: rgb(213, 232, 212);&quot;&gt;...&lt;/b&gt;" style="text;html=1;align=center;verticalAlign=middle;whiteSpace=wrap;rounded=0;" vertex="1" parent="1">
          <mxGeometry x="384" y="840" width="60" height="30" as="geometry" />
        </mxCell>
        <mxCell id="jVJgHR4kwDVV8evpO-Ld-47" value="&lt;b&gt;&lt;span style=&quot;background-color: rgb(213, 232, 212);&quot;&gt;false&lt;/span&gt;&lt;/b&gt;" style="edgeStyle=orthogonalEdgeStyle;rounded=0;orthogonalLoop=1;jettySize=auto;html=1;entryX=0.5;entryY=0;entryDx=0;entryDy=0;strokeWidth=3;fillColor=#dae8fc;strokeColor=#6c8ebf;" edge="1" parent="1" source="jVJgHR4kwDVV8evpO-Ld-37" target="jVJgHR4kwDVV8evpO-Ld-44">
          <mxGeometry x="0.0909" y="26" relative="1" as="geometry">
            <mxPoint x="413.76" y="780" as="sourcePoint" />
            <mxPoint as="offset" />
            <mxPoint x="413.76" y="835" as="targetPoint" />
          </mxGeometry>
        </mxCell>
        <mxCell id="jVJgHR4kwDVV8evpO-Ld-58" style="edgeStyle=orthogonalEdgeStyle;rounded=0;orthogonalLoop=1;jettySize=auto;html=1;entryX=0.5;entryY=0;entryDx=0;entryDy=0;exitX=1;exitY=0.5;exitDx=0;exitDy=0;strokeWidth=3;fillColor=#dae8fc;strokeColor=#6c8ebf;" edge="1" parent="1" source="jVJgHR4kwDVV8evpO-Ld-49" target="jVJgHR4kwDVV8evpO-Ld-8">
          <mxGeometry relative="1" as="geometry">
            <Array as="points">
              <mxPoint x="1000" y="970" />
              <mxPoint x="1000" y="1070" />
              <mxPoint x="414" y="1070" />
            </Array>
          </mxGeometry>
        </mxCell>
        <mxCell id="jVJgHR4kwDVV8evpO-Ld-49" value="&lt;div&gt;&lt;b&gt;Bloc de codidefault&lt;/b&gt;&lt;/div&gt;" style="rounded=0;whiteSpace=wrap;html=1;fillColor=#ffe6cc;strokeColor=#d79b00;strokeWidth=3;" vertex="1" parent="1">
          <mxGeometry x="650" y="935" width="250" height="70" as="geometry" />
        </mxCell>
        <mxCell id="jVJgHR4kwDVV8evpO-Ld-51" value="5" style="ellipse;whiteSpace=wrap;html=1;aspect=fixed;fillColor=#f8cecc;strokeColor=#b85450;fontStyle=1" vertex="1" parent="1">
          <mxGeometry x="880" y="985" width="30" height="30" as="geometry" />
        </mxCell>
        <mxCell id="jVJgHR4kwDVV8evpO-Ld-52" value="&lt;b&gt;&lt;span style=&quot;background-color: rgb(213, 232, 212);&quot;&gt;false&lt;/span&gt;&lt;/b&gt;" style="edgeStyle=orthogonalEdgeStyle;rounded=0;orthogonalLoop=1;jettySize=auto;html=1;entryX=0;entryY=0.5;entryDx=0;entryDy=0;strokeWidth=3;fillColor=#dae8fc;strokeColor=#6c8ebf;exitX=0.5;exitY=1;exitDx=0;exitDy=0;" edge="1" parent="1" target="jVJgHR4kwDVV8evpO-Ld-49" source="jVJgHR4kwDVV8evpO-Ld-44">
          <mxGeometry x="-0.8214" y="26" relative="1" as="geometry">
            <mxPoint x="414" y="880" as="sourcePoint" />
            <mxPoint as="offset" />
            <mxPoint x="414" y="935" as="targetPoint" />
          </mxGeometry>
        </mxCell>
      </root>
    </mxGraphModel>
  </diagram>
</mxfile>
